<?xml version="1.0" standalone="no"?>
<!DOCTYPE svg PUBLIC "-//W3C//DTD SVG 20010904//EN"
 "http://www.w3.org/TR/2001/REC-SVG-20010904/DTD/svg10.dtd">
<svg version="1.0" xmlns="http://www.w3.org/2000/svg"
 width="816.000000pt" height="816.000000pt" viewBox="0 0 816.000000 816.000000"
 preserveAspectRatio="xMidYMid meet">
<metadata>
Created by potrace 1.11, written by Peter Selinger 2001-2013
</metadata>
<g transform="translate(0.000000,816.000000) scale(0.100000,-0.100000)"
fill="#000000" stroke="none">
<path d="M3730 8073 c-836 -63 -1589 -358 -2240 -877 -163 -130 -479 -447
-608 -609 -482 -607 -765 -1285 -857 -2047 -22 -188 -30 -550 -16 -740 76
-1010 497 -1905 1225 -2607 1022 -986 2500 -1351 3873 -958 989 284 1840 950
2359 1847 135 233 269 536 348 788 42 132 102 368 95 374 -2 2 -25 0 -50 -6
-104 -24 -208 23 -253 114 -34 68 -33 120 2 189 62 124 221 164 328 83 l32
-23 5 22 c31 127 33 665 2 912 -95 782 -387 1472 -879 2080 -121 149 -433 459
-586 581 -631 503 -1365 799 -2160 869 -146 13 -494 18 -620 8z m304 -3219
c141 -38 257 -124 317 -237 30 -56 34 -71 37 -162 3 -84 0 -109 -18 -158 -29
-76 -100 -149 -182 -187 -50 -23 -59 -30 -43 -35 109 -34 201 -109 252 -207
26 -49 28 -61 28 -169 0 -113 -1 -117 -37 -191 -66 -132 -191 -228 -359 -274
-99 -28 -310 -25 -414 4 -199 57 -331 171 -396 342 l-19 49 38 10 c87 23 278
73 293 77 11 3 21 -8 34 -36 22 -48 92 -115 143 -137 82 -35 221 -15 281 40
89 82 77 232 -24 296 -55 35 -110 48 -239 57 l-96 7 0 132 0 132 114 5 c101 4
120 7 172 34 71 36 94 74 94 155 0 70 -26 113 -90 147 -38 20 -56 23 -117 20
-105 -5 -158 -47 -209 -166 -3 -6 -329 71 -338 79 -17 16 63 158 123 218 126
126 289 185 491 176 58 -2 132 -12 164 -21z m1646 -19 c0 -3 -85 -124 -190
-269 -104 -145 -190 -266 -190 -269 0 -3 35 -3 78 0 204 13 395 -95 484 -274
48 -95 62 -166 55 -278 -20 -331 -296 -553 -662 -532 -220 12 -395 105 -494
261 -65 103 -84 172 -84 301 -1 205 29 270 335 733 l221 332 223 0 c123 0 224
-2 224 -5z m1560 -155 l0 -160 -315 0 -315 0 -4 -22 c-3 -13 -7 -68 -8 -124
l-4 -101 141 1 c156 1 226 -13 330 -64 114 -55 193 -146 234 -268 26 -76 29
-238 6 -327 -47 -179 -183 -314 -378 -374 -71 -21 -101 -25 -217 -25 -119 1
-145 4 -215 27 -107 35 -196 90 -260 159 -51 55 -115 165 -115 197 0 12 40 28
158 64 86 26 162 47 168 47 6 0 18 -14 25 -32 52 -127 222 -186 355 -124 62
29 100 75 115 143 34 147 -52 263 -218 294 -101 19 -323 -3 -445 -46 l-38 -13
0 37 c0 72 32 846 35 859 4 9 109 12 485 12 l480 0 0 -160z"/>
<path d="M5237 4019 c-56 -13 -90 -33 -130 -78 -40 -45 -57 -93 -57 -166 0
-76 16 -119 66 -174 56 -62 125 -87 211 -77 137 16 216 108 216 252 0 108 -51
193 -138 229 -43 18 -124 25 -168 14z"/>
</g>
</svg>
