<?xml version="1.0" encoding="UTF-8"?><svg id="Layer_1" xmlns="http://www.w3.org/2000/svg" viewBox="0 0 400 400"><defs><style>.cls-1{fill:#eac906;}.cls-2{fill:#ff9f36;}.cls-2,.cls-3,.cls-4{stroke:#000;stroke-linecap:round;stroke-linejoin:round;stroke-width:6px;}.cls-5{fill:#ffe000;}.cls-3{fill:none;}.cls-4{fill:#74c0fc;}</style></defs><path class="cls-4" d="m245.26,127.72s44.42,29.46,41.92,85.12c-2.5,55.66,1.47,63.17,1.47,63.17,0,0-23.85-18.99-30.04-45.35-6.18-26.36-13.35-102.93-13.35-102.93Z"/><path class="cls-5" d="m275.39,311.1s-.26.06-.76.18c-2.02.45-7.94,1.74-16.91,3.16-1.18.19-2.41.38-3.69.57-25.74,3.84-71.86,8.01-122.25-.21-.6-.1-1.2-.2-1.81-.3-5.74-.96-11.53-2.09-17.36-3.4,0,0-1-23.72,11.19-44.54,4.05-6.91,9.54-13.5,17.01-18.78.84-.6,1.7-1.18,2.59-1.74.13-.09.2-.14.2-.14h.01c.53-.34,1.07-.66,1.62-.98,0,0-20.34-8.37-20.34-52.22s37.86-56.96,73.94-56.96,74.65,15.22,72.88,65.69c0,0,1.87,30.8-21.81,50.36,0,0,.97.92,2.53,2.72,2.06,2.38,5.15,6.29,8.42,11.63,5.39,8.83,11.26,21.59,13.72,37.83.34,2.31.62,4.68.82,7.13Z"/><path class="cls-1" d="m126.44,189.87s41.26,21.28,76.68,9.52c35.42-11.76,69.96,17.9,69.96,17.9,0,0,4.75-28.36-9.44-40.22-14.19-11.86-131.73,3.12-131.73,3.12l-5.46,9.69Z"/><path class="cls-1" d="m153.4,258.77c-16.16,13.08-21.6,39.11-23.43,55.73-5.74-.96-11.53-2.09-17.36-3.4,0,0-1-23.72,11.19-44.54,4.05-6.91,9.54-13.5,17.01-18.78l12.59,10.99Z"/><path class="cls-1" d="m275.39,311.1s-.26.06-.76.18c-2.02.45-7.94,1.74-16.91,3.16-.7-32.31-12.46-51.5-12.46-51.5l7.17-8.43c2.06,2.38,5.15,6.29,8.42,11.63,5.39,8.83,11.26,21.59,13.72,37.83.34,2.31.62,4.68.82,7.13Z"/><path class="cls-1" d="m144.19,245.54s21.07,18.97,53.76,18.97,51.16-13.07,51.16-13.07l4.53,4.51s-17,27.03-55.58,27.03-59.47-33.98-59.47-33.98l5.6-3.45Z"/><path class="cls-2" d="m225.21,236.28s-14.78,13.86-25.82,16.51c-11.04,2.65-30.21-16.2-30.21-16.2l56.03-.31Z"/><path class="cls-2" d="m228.76,235.13s-24.15-17.2-31.36-17.06-34.31,17.06-34.31,17.06c0,0,22.26,9.89,33.31,10.48,11.04.59,32.36-10.48,32.36-10.48Z"/><path class="cls-3" d="m161.47,255.95s-35.34-14.85-35.34-59.02,31.21-61.55,75.09-61.55,71.85,22.38,71.85,63.02-24.74,60.37-47.41,60.37"/><path class="cls-3" d="m276.02,312.95s3.21-34.38-25.64-62.39"/><path class="cls-3" d="m145.34,244.56s-33.34,15.39-31.28,68.39"/><path class="cls-3" d="m226.93,215.48s5.3,5.15,7.36,4.71,7.36-5.83,7.36-5.83"/><path class="cls-3" d="m165.65,215.48s-5.3,5.15-7.36,4.71-7.36-5.83-7.36-5.83"/><path class="cls-4" d="m271.58,170.33c-6.8-25.69-23.56-54.01-68.95-56.86-78.49-4.93-79.49,74.54-79.49,74.54,0,0,50.97,15.45,79,.44,28.03-15.01,73.55,17.49,73.55,17.49,0,0,1.47-8.4-.08-20.11"/><path class="cls-3" d="m111.53,134.74l7.04,1s-5.89,7.01-7.21,10.1h7.21"/><path class="cls-3" d="m111.53,80.45l7.04,1s-5.89,7.01-7.21,10.1h7.21"/><path class="cls-3" d="m132.02,109.54l4.58.65s-3.83,4.56-4.69,6.57h4.69"/></svg>