<?xml version="1.0" encoding="UTF-8"?><svg id="Layer_1" xmlns="http://www.w3.org/2000/svg" viewBox="0 0 400 400"><defs><style>.cls-1{fill:#fff;}.cls-2{fill:#eac906;}.cls-3{fill:#ff9f36;}.cls-3,.cls-4{stroke:#000;stroke-linecap:round;stroke-linejoin:round;stroke-width:6px;}.cls-5{fill:#ffe000;}.cls-4{fill:none;}</style></defs><path class="cls-5" d="m276.98,311.1s-.26.06-.76.18c-2.28.51-9.57,2.09-20.6,3.73-25.74,3.84-71.86,8.01-122.25-.21-6.33-1.03-12.73-2.25-19.17-3.7,0,0-1-23.72,11.19-44.54,4.5-7.69,10.79-14.98,19.6-20.52.13-.09.2-.14.2-.14h.01c.53-.34,1.07-.66,1.62-.98,0,0-20.34-8.37-20.34-52.22s37.86-56.96,73.94-56.96,74.65,15.22,72.88,65.69c0,0,1.87,30.8-21.81,50.36,0,0,5.21,4.96,10.95,14.35,5.39,8.83,11.26,21.59,13.72,37.83.34,2.31.62,4.68.82,7.13Z"/><path class="cls-2" d="m264.32,202.89s-5.01,20.91-66.99,20.91-61.73-25.18-61.73-25.18l62.76,16.1,65.96-12.57v.74Z"/><path class="cls-2" d="m157.02,253.82c-20.46,21.02-23.46,48.38-23.65,60.98-6.33-1.03-12.73-2.25-19.17-3.7,0,0-1-23.72,11.19-44.54,8.31-12.5,18.07-19.48,19.6-20.52.13-.09.2-.14.2-.14h.01l11.82,7.92Z"/><path class="cls-2" d="m276.22,311.28c-2.28.51-9.57,2.09-20.6,3.73-.08-13.94-3.1-37.74-20.09-57.4l12.27-7.2s7.39,5.49,14.64,15.73c6.43,9.06,12.74,21.85,13.72,37.83.15,2.37.17,4.8.06,7.31Z"/><path class="cls-4" d="m161.69,256.31s-35.34-14.85-35.34-59.02,31.21-61.55,75.09-61.55,71.85,22.38,71.85,63.02-24.74,60.37-47.41,60.37"/><path class="cls-4" d="m276.24,313.31s3.21-34.38-25.64-62.39"/><path class="cls-4" d="m145.57,244.92s-33.34,15.39-31.28,68.39"/><path d="m199.62,171.48c16.94,0,19.39-5.58,40.68-5.58s38.13,2,37.5,8.64c-.45,4.74-6.31,6.64-6.31,6.64-2.76,16.33-3.51,33.4-34.82,33.4-31.31,0-29.93-19.97-30.94-26.82-.01-.07-.02-.14-.03-.2-.95-5.92-11.2-5.92-12.16,0-.01.07-.02.13-.03.2-1,6.85.38,26.82-30.94,26.82s-32.06-17.07-34.82-33.4c0,0-6.31-1.89-6.31-6.64,0-6.32,16.21-8.64,37.5-8.64s23.74,5.58,40.68,5.58Z"/><path class="cls-1" d="m182.74,180.17s-5.76-7.54-25.3-7.54-22.42,8.11-22.42,8.11c0,0-1.88,19.81,9.89,24.13,0,0-7.51-15.17-1.38-23.07,6.14-7.9,39.2-1.62,39.2-1.62Z"/><path class="cls-1" d="m260.63,180.17s-5.76-7.54-25.3-7.54-22.42,8.11-22.42,8.11c0,0-1.88,19.81,9.89,24.13,0,0-7.51-15.17-1.38-23.07,6.14-7.9,39.2-1.62,39.2-1.62Z"/><path class="cls-3" d="m227.65,221.65s-14.78,13.86-25.82,16.51c-11.04,2.65-30.21-16.2-30.21-16.2l56.03-.31Z"/><path class="cls-3" d="m231.19,220.49s-24.15-19.2-31.36-19.06-34.31,19.06-34.31,19.06c0,0,22.26,6.89,33.31,7.48s32.36-7.48,32.36-7.48Z"/></svg>