<?xml version="1.0" encoding="UTF-8" standalone="no"?>
<svg
   id="Layer_1"
   viewBox="0 0 356 356"
   version="1.1"
   sodipodi:docname="duck_hero.svg"
   inkscape:version="1.2.2 (b0a8486541, 2022-12-01)"
   width="356"
   height="356"
   xmlns:inkscape="http://www.inkscape.org/namespaces/inkscape"
   xmlns:sodipodi="http://sodipodi.sourceforge.net/DTD/sodipodi-0.dtd"
   xmlns="http://www.w3.org/2000/svg"
   xmlns:svg="http://www.w3.org/2000/svg">
  <sodipodi:namedview
     id="namedview49"
     pagecolor="#ffffff"
     bordercolor="#666666"
     borderopacity="1.0"
     inkscape:showpageshadow="2"
     inkscape:pageopacity="0.0"
     inkscape:pagecheckerboard="0"
     inkscape:deskcolor="#d1d1d1"
     showgrid="false"
     inkscape:zoom="2.5675"
     inkscape:cx="34.858812"
     inkscape:cy="172.73612"
     inkscape:window-width="2560"
     inkscape:window-height="1368"
     inkscape:window-x="0"
     inkscape:window-y="1122"
     inkscape:window-maximized="1"
     inkscape:current-layer="Layer_1" />
  <defs
     id="defs4">
    <style
       id="style2">.cls-1,.cls-2,.cls-3,.cls-4,.cls-5,.cls-6,.cls-7,.cls-8,.cls-9,.cls-10{stroke:#000;stroke-linecap:round;stroke-linejoin:round;}.cls-1,.cls-3,.cls-4,.cls-7{stroke-width:6px;}.cls-1,.cls-11{fill:#ffe000;}.cls-12{fill:#eac906;}.cls-2,.cls-5,.cls-8{stroke-width:5px;}.cls-2,.cls-6,.cls-7,.cls-10{fill:none;}.cls-3{fill:#e8e6e2;}.cls-4{fill:#ff9f36;}.cls-5{fill:#ccc;}.cls-6{stroke-width:3px;}.cls-8{fill:gray;}.cls-9{fill:#e6e6e6;}.cls-9,.cls-10{stroke-width:1.74px;}</style>
  </defs>
  <path
     class="cls-11"
     d="m 344.06752,173.65963 c -3.08,36.01 -9.18,69.17 -38.15,90.58 -0.8,0.61 -1.62,1.19 -2.44,1.77 -0.75,0.53 -1.51,1.06 -2.28,1.58 -15.17,10.3 -32.99,16.02 -51.31,16.78 -35.02,1.46 -99.07,0.11 -123.56,-26.68 -32.869996,-35.95 -28.489996,-75.66 11.09,-111.18 0.33,-0.31 0.67,-0.61 1.01,-0.91 -8.36,-7.74 -15.64,-19.63 -15.64,-37.51 0,-15.47 2.99,-31.84 13.33,-43.92 11.65,-13.6 29.94,-16.4 47.16,-17.69 14.9,-1.11 28.65,1.18 40.89,10.15 10.4,7.61 18.32,16.55 22.61,28.69 9.34,26.42 -1.21,53.38 -24.45,68.42 0,0 25.99,7.95 52.49,-3.24 26.5,-11.19 47.41,-29.74 61.25,-25.91 7.47,2.06 10.13,24.25 8,49.07 z"
     id="path6" />
  <path
     class="cls-12"
     d="m 305.91752,264.23963 c -0.8,0.61 -1.62,1.19 -2.44,1.77 -0.75,0.53 -1.51,1.06 -2.28,1.58 -15.17,10.3 -32.99,16.02 -51.31,16.78 -35.02,1.46 -99.07,0.11 -123.56,-26.68 -32.869996,-35.95 -28.489996,-75.66 11.09,-111.18 l 18.02,10.67 c 0,0 -46.11,73.56 9.55,100.5 55.64,26.93 99.04,21.12 140.93,6.56 z"
     id="path8" />
  <path
     class="cls-7"
     d="m 344.06752,173.65963 c -3.18,37 -10.2,71.01 -40.6,92.35 -0.75,0.53 -1.51,1.05 -2.28,1.57 -15.17,10.3 -32.99,16.02 -51.31,16.78 -35.02,1.46 -99.07,0.11 -123.56,-26.68 -33.149996,-36.25 -28.409996,-76.33 12.1,-112.09 -8.36,-7.74 -15.64,-19.63 -15.64,-37.51 0,-15.47 2.99,-31.84 13.33,-43.91 11.66,-13.61 29.94,-16.4 47.16,-17.69 14.9,-1.11 28.65,1.18 40.9,10.14 10.4,7.61 18.32,16.56 22.61,28.69 9.34,26.43 -1.21,53.39 -24.45,68.42 0,0 25.99,7.95 52.49,-3.24 26.5,-11.19 47.41,-29.74 61.25,-25.91 7.47,2.06 10.13,24.26 8,49.07 z"
     id="path10" />
  <path
     class="cls-3"
     d="m 163.13752,159.03963 c 0,0 -13.36,-2.92 -24.71,-13.44"
     id="path12" />
  <ellipse
     cx="194.24753"
     cy="116.70963"
     rx="6.4000001"
     ry="8.5200005"
     id="ellipse14" />
  <path
     d="m 126.03752,104.11963 c 0,0 8.15,11.01 -1.27,16.11 0,0 -6.71,-12.95 1.27,-16.11 z"
     id="path16" />
  <path
     class="cls-4"
     d="m 182.42752,122.65963 c 0,0 -1.06,2.37 -3.1,5.52 -8.43,8.08 -31.74,10.44 -48.57,9.97 h -0.01 c -10.67,-0.3 -18.73,-1.73 -18.73,-3.57 0.04,-5.3 36.62,-27.38 43.91,-28.93 7.29,-1.55 26.5,17.01 26.5,17.01 z"
     id="path18" />
  <path
     class="cls-4"
     d="m 179.32752,128.17963 c -3.15,4.82 -8.62,11.46 -16.19,14.13 -12.34,4.36 -31.86,-3.93 -32.38,-4.16 16.83,0.47 40.14,-1.89 48.57,-9.97 z"
     id="path20" />
  <path
     class="cls-12"
     d="m 248.30752,210.91963 c 0,0 2.04,31.8 -15.92,40.05 -17.96,8.25 -33.79,2.65 -45.31,21.35 -11.52,18.7 -15.08,-5.96 -15.08,-5.96 0,0 11.59,-20.28 27.89,-21.37 16.3,-1.09 44.61,2.74 48.42,-34.07 z"
     id="path22" />
  <path
     class="cls-8"
     d="m 126.51752,261.67963 c 19.8,2.19 80.69,10.93 80.69,10.93 l -12.85,7.52 -82.34,16.56 14.51,-35.01 z"
     id="path24" />
  <path
     class="cls-5"
     d="m 126.57752,288.60963 c 0,0 0.06,-111.43 -2.24,-114.52 -2.08,-2.79 -62.899996,-11.13 -103.889996,-3.57 -6.72,1.24 -11.0099999,7.88 -9.39,14.52 7.14,29.35 17.75,103.45 21.73,105.27 4.94,2.26 87.739996,21.36 96.219996,19.85 8.48,-1.5 75.94,-20.86 75.94,-20.86 0,0 3.82,-16.11 2.26,-16.7 -1.56,-0.59 -77.46,18.4 -80.63,16 z"
     id="path26"
     style="fill:#73c1fc;fill-opacity:1" />
  <path
     class="cls-9"
     d="m 126.53752,266.71963 c 0,0 48.36,4.89 49.97,5.77 1.61,0.88 -49.93,11.03 -49.93,11.03 z"
     id="path28" />
  <line
     class="cls-10"
     x1="126.56753"
     y1="276.45963"
     x2="159.17752"
     y2="270.18964"
     id="line30" />
  <line
     class="cls-10"
     x1="132.95753"
     y1="267.37964"
     x2="126.54752"
     y2="269.06961"
     id="line32" />
  <path
     class="cls-10"
     d="m 161.51752,276.34963 c 0,0 -34.96,-3.84 -34.96,-4.34"
     id="path34" />
  <path
     class="cls-10"
     d="m 138.23752,281.18963 c 0,0 -9.35,-2.06 -11.52,-2.7"
     id="path36" />
  <path
     class="cls-6"
     d="m 128.09752,310.25963 c 0,0 4.83,-2 5.93,-10.22 1.1,-8.23 -3.65,-11.77 -8.8,-6.48 -5.15,5.29 -2.74,12.96 -2.74,12.96"
     id="path38" />
  <path
     class="cls-7"
     d="m 116.71752,288.32963 c 0,0 0.76,-106.38 -0.89,-107.13 -1.65,-0.75 -59.909996,-12.77 -103.259996,1.79"
     id="path40" />
  <path
     class="cls-1"
     d="m 248.57752,207.94963 c 0,0 -1.2,37.18 -34.34,35.76 -33.14,-1.42 -35.26,23.03 -48.8,26.28 -13.53,3.25 -34.94,-13.05 -24.1,-42.06 10.84,-29.01 51.32,-47.08 51.32,-47.08"
     id="path42" />
  <path
     class="cls-2"
     d="m 126.57752,288.60963 c 0,0 0.06,-111.43 -2.24,-114.52 -2.08,-2.79 -62.899996,-11.13 -103.889996,-3.57 -6.72,1.24 -11.0099999,7.88 -9.39,14.52 7.14,29.35 17.75,103.45 21.73,105.27 4.94,2.26 87.739996,21.36 96.219996,19.85 8.48,-1.5 75.94,-20.86 75.94,-20.86 0,0 3.82,-16.11 2.26,-16.7 -1.56,-0.59 -77.46,18.4 -80.63,16 z"
     id="path44" />
  <path
     class="cls-4"
     d="m 212.84752,286.74963 c 14.29,22.48 46.62,21.73 60.24,-1.16 3.61,-6.07 7.78,-18.62 6.17,-24.64 -4.82,-18.13 -18.47,10.57 -23.29,9.97 -4.82,-0.6 -2.31,-18.28 -9.04,-22.71 -6.72,-4.44 -10.84,5.94 -13.86,19.74 -3.02,13.8 -9.95,-14.4 -23.65,-13.15 -7.34,0.67 -5.85,17.37 3.41,31.95 z"
     id="path46" />
</svg>
