<svg width="7" height="13" viewBox="0 0 7 13" fill="none" xmlns="http://www.w3.org/2000/svg">
<path fill-rule="evenodd" clip-rule="evenodd" d="M6.7364 0.00270487L5.05742 0C3.17114 0 1.95214 1.25573 1.95214 3.19932V4.67442H0.264004C0.118128 4.67442 0 4.79316 0 4.93963V7.07688C0 7.22335 0.118263 7.34196 0.264004 7.34196H1.95214V12.7349C1.95214 12.8814 2.07027 13 2.21615 13H4.41869C4.56457 13 4.6827 12.8813 4.6827 12.7349V7.34196H6.65653C6.8024 7.34196 6.92053 7.22335 6.92053 7.07688L6.92134 4.93963C6.92134 4.8693 6.89346 4.80195 6.84402 4.75218C6.79472 4.70241 6.72738 4.67442 6.6572 4.67442H4.6827V3.42396C4.6827 2.82294 4.82534 2.51783 5.60523 2.51783L6.73613 2.51742C6.88187 2.51742 7 2.39868 7 2.25234V0.267782C7 0.121584 6.88201 0.00297535 6.7364 0.00270487Z" fill="#9B9B9B"/>
</svg>
