<svg width="14" height="14" viewBox="0 0 14 14" fill="none" xmlns="http://www.w3.org/2000/svg">
<path fill-rule="evenodd" clip-rule="evenodd" d="M10.1366 12.7578C11.582 12.7578 12.758 11.582 12.758 10.1366H12.7578V3.86352C12.7578 2.41814 11.5819 1.24216 10.1365 1.24216H3.86335C2.41806 1.24216 1.24216 2.41814 1.24216 3.86352V10.1366C1.24216 11.582 2.41806 12.758 3.86335 12.7578H10.1366ZM3.86335 0H10.1365C12.2669 0 14.0002 1.73322 14 3.86352V10.1366C14 12.2669 12.2669 14 10.1365 14H3.86335C1.73314 14 0 12.2669 0 10.1366V3.86352C0 1.73322 1.73314 0 3.86335 0ZM6.99998 4.63478C5.69572 4.63478 4.63467 5.69583 4.63467 7.00009C4.63467 8.30427 5.6958 9.36524 6.99998 9.36524C8.30425 9.36524 9.3653 8.30427 9.3653 7.00009C9.3653 5.69583 8.30425 4.63478 6.99998 4.63478ZM6.99998 10.6075C5.0108 10.6075 3.39252 8.98928 3.39252 7.00017C3.39252 5.01099 5.0108 3.39271 6.99998 3.39271C8.98917 3.39271 10.6075 5.01099 10.6075 7.00017C10.6075 8.98928 8.98917 10.6075 6.99998 10.6075Z" fill="#9B9B9B"/>
</svg>
