<svg width="14" height="14" viewBox="0 0 14 14" fill="none" xmlns="http://www.w3.org/2000/svg">
<path fill-rule="evenodd" clip-rule="evenodd" d="M14 14H0V0H14V14ZM3.22238 4.37488C3.30854 4.45256 3.35262 4.56671 3.34092 4.68216V8.83908C3.36648 8.98899 3.31923 9.1422 3.21362 9.25169L2.22566 10.4501V10.6081H5.02695V10.4501L4.03905 9.25169C3.93265 9.14242 3.88239 8.99021 3.90293 8.83908V5.24403L6.36183 10.6081H6.64721L8.7592 5.24403V9.51948C8.7592 9.63364 8.7592 9.65553 8.68454 9.7302L7.92495 10.4676V10.6256H11.6133V10.4676L10.88 9.74772C10.8152 9.6984 10.7831 9.61727 10.7965 9.537V4.24759C10.7831 4.16732 10.8152 4.08626 10.88 4.03687L11.6308 3.31698V3.15896H9.03145L7.1785 7.78119L5.07089 3.15896H2.34419V3.31698L3.22238 4.37488Z" fill="#9B9B9B"/>
</svg>
