<svg width="14" height="11" viewBox="0 0 14 11" fill="none" xmlns="http://www.w3.org/2000/svg">
<path fill-rule="evenodd" clip-rule="evenodd" d="M14 1.30213C13.4848 1.52299 12.9314 1.67227 12.3504 1.7394C12.9433 1.39572 13.3988 0.851523 13.6133 0.203033C13.0582 0.521303 12.4436 0.752385 11.7893 0.876902C11.2654 0.337199 10.5189 0 9.69274 0C8.1065 0 6.8205 1.24329 6.8205 2.77687C6.8205 2.99453 6.8459 3.20647 6.89488 3.40974C4.50777 3.29389 2.39134 2.18837 0.974721 0.508243C0.727479 0.918381 0.585811 1.3954 0.585811 1.90433C0.585811 2.86779 1.09287 3.71778 1.86358 4.21576C1.39275 4.20133 0.949865 4.07642 0.562651 3.86841C0.562378 3.87999 0.562378 3.89162 0.562378 3.90334C0.562378 5.2488 1.55247 6.37114 2.86638 6.62633C2.62541 6.68973 2.37163 6.72378 2.10968 6.72378C1.92459 6.72378 1.74466 6.70633 1.56925 6.67386C1.93479 7.77706 2.9955 8.58005 4.25238 8.60239C3.26938 9.34726 2.0309 9.79116 0.685178 9.79116C0.453331 9.79116 0.22471 9.77805 0 9.75227C1.2711 10.5403 2.78088 11 4.40291 11C9.68601 11 12.5751 6.76851 12.5751 3.09884C12.5751 2.97845 12.5722 2.85869 12.5667 2.73957C13.128 2.34807 13.6149 1.85899 14 1.30213Z" fill="#9B9B9B"/>
</svg>
