<?xml version="1.0" standalone="no"?>
<!DOCTYPE svg PUBLIC "-//W3C//DTD SVG 20010904//EN"
 "http://www.w3.org/TR/2001/REC-SVG-20010904/DTD/svg10.dtd">
<svg version="1.0" xmlns="http://www.w3.org/2000/svg"
 width="260.000000pt" height="260.000000pt" viewBox="0 0 260.000000 260.000000"
 preserveAspectRatio="xMidYMid meet">
<metadata>
Created by potrace 1.11, written by Peter Selinger 2001-2013
</metadata>
<g transform="translate(0.000000,260.000000) scale(0.100000,-0.100000)"
fill="#000000" stroke="none">
<path d="M0 1305 l0 -1295 1295 0 1295 0 0 1295 0 1295 -1295 0 -1295 0 0
-1295z m2410 0 l0 -1115 -1115 0 -1115 0 0 1115 0 1115 1115 0 1115 0 0 -1115z"/>
<path d="M454 1841 c-2 -2 -4 -28 -4 -58 0 -48 2 -53 23 -54 12 -1 86 -1 163
-1 l142 0 0 -437 c0 -240 1 -446 1 -458 1 -22 5 -23 70 -23 l70 0 0 393 c0
215 0 422 0 459 l1 66 156 0 c170 -1 174 0 168 56 -1 17 -3 38 -3 46 -1 13
-51 15 -392 15 -215 0 -393 -2 -395 -4z"/>
<path d="M1330 1328 l0 -518 65 0 65 0 1 453 1 452 27 -80 c15 -44 55 -165 90
-268 l63 -188 55 3 56 3 82 247 c46 136 87 253 92 262 4 8 8 -188 7 -435 l0
-450 65 3 65 3 1 505 c0 278 -1 510 -2 515 -2 6 -41 10 -96 10 l-92 0 -52
-155 c-124 -365 -127 -373 -134 -348 -16 54 -162 474 -169 488 -7 11 -30 15
-99 15 l-91 1 0 -518z"/>
</g>
</svg>
