<?xml version="1.0" standalone="no"?>
<!DOCTYPE svg PUBLIC "-//W3C//DTD SVG 20010904//EN"
 "http://www.w3.org/TR/2001/REC-SVG-20010904/DTD/svg10.dtd">
<svg version="1.0" xmlns="http://www.w3.org/2000/svg"
 width="260.000000pt" height="260.000000pt" viewBox="0 0 260.000000 260.000000"
 preserveAspectRatio="xMidYMid meet">
<metadata>
Created by potrace 1.11, written by Peter Selinger 2001-2013
</metadata>
<g transform="translate(0.000000,260.000000) scale(0.100000,-0.100000)"
fill="#000000" stroke="none">
<path d="M150 1290 l0 -1150 1150 0 1150 0 0 1150 0 1150 -1150 0 -1150 0 0
-1150z m2120 0 l0 -970 -970 0 -970 0 0 970 0 970 970 0 970 0 0 -970z"/>
<path d="M530 1705 l0 -55 150 0 150 0 0 -420 0 -420 65 0 65 0 0 420 0 420
145 0 145 0 0 55 0 55 -360 0 -360 0 0 -55z"/>
<path d="M1330 1285 l0 -475 60 0 60 0 2 413 3 412 54 -160 c30 -88 67 -197
84 -243 l29 -83 51 3 50 3 81 240 81 240 3 -412 2 -413 60 0 60 0 0 475 0 475
-88 0 -88 0 -79 -235 c-44 -129 -82 -235 -85 -235 -3 0 -41 106 -84 235 l-79
235 -88 0 -89 0 0 -475z"/>
</g>
</svg>
