<svg width="48" height="70" viewBox="0 0 48 70" fill="none" xmlns="http://www.w3.org/2000/svg">
<g opacity="0.15">
<path d="M23.1504 41.821C23.1549 40.2028 20.8931 38.8846 18.0986 38.8768C15.304 38.869 13.0349 40.1745 13.0304 41.7927C13.0259 43.4109 15.2876 44.729 18.0822 44.7368C20.8767 44.7446 23.1458 43.4391 23.1504 41.821Z" fill="#2F7DB5"/>
<path d="M21.64 0.999998C19.3896 -0.140401 16.7304 -0.140401 14.48 0.999998C13.669 1.35967 13.1069 2.11929 13 3V41.81L22.81 41.09L46.58 54.84L47.16 54.51V15.7L21.64 0.999998Z" fill="#1E5176"/>
<path d="M45.0301 53.01L38.9801 56.5L15.0801 42.58V5.45L20.1101 2.54L45.0301 16.93V53.01Z" fill="#3FA9F5"/>
<path d="M45.03 53.01L38.98 56.5V20.42L45.03 16.93V53.01Z" fill="white"/>
<path d="M40.04 58.62L14.53 43.89V5.13L40.04 19.86V58.62Z" fill="#1E5176"/>
<path d="M14.51 43.89C13.6699 43.5179 13.0936 42.7241 13 41.81V3C13.0876 3.91337 13.661 4.7085 14.5 5.08L14.51 43.89Z" fill="#0E2536"/>
<path d="M18.06 0.679998C19.2096 0.654901 20.3463 0.927014 21.36 1.47L46.58 16L47.16 15.67L21.64 0.999998C20.5417 0.403819 19.3096 0.0975043 18.06 0.109998C16.8102 0.0961746 15.5778 0.402571 14.48 0.999998C12.48 2.15 12.48 4 14.48 5.15L40 19.86L40.57 19.53L40.29 19.36L14.79 4.62C14.1233 4.33866 13.6605 3.71913 13.58 3C13.6702 2.30031 14.1224 1.69992 14.77 1.42C15.7859 0.897707 16.9182 0.643021 18.06 0.679998Z" fill="#0E2536"/>
<path fill-rule="evenodd" clip-rule="evenodd" d="M46.58 54.84V16L47.16 15.7V54.51L46.58 54.84ZM40 58.61V19.86L40.57 19.53V58.26L40 58.61Z" fill="#0E2536"/>
</g>
<path d="M10.5846 51.9999C10.5893 50.31 8.22924 48.9334 5.31318 48.9252C2.39713 48.9171 0.0293777 50.2805 0.0246584 51.9705C0.0199391 53.6604 2.38004 55.0371 5.29609 55.0452C8.21215 55.0533 10.5799 53.6899 10.5846 51.9999Z" fill="#455A64"/>
<path d="M9 9.43C6.65458 8.22998 3.87542 8.22998 1.53 9.43C0.667048 9.8205 0.0820591 10.6464 0 11.59H0V52L10.22 51.24L35 65.56L35.59 65.22V24.78L9 9.43Z" fill="#00616D"/>
<path d="M33.3599 63.66L27.0599 67.29L2.1499 52.78V14.09L7.3999 11.07L33.3599 26.06V63.66Z" fill="#CFD8DC"/>
<path d="M33.3601 63.66L27.0601 67.29V29.69L33.3601 26.06V63.66Z" fill="white"/>
<path d="M28.1701 69.5L1.58008 54.15V13.76L28.1701 29.11V69.5Z" fill="url(#paint0_linear)"/>
<path d="M1.56 54.15C0.691062 53.7662 0.0953214 52.9451 0 52V11.59C0.0918821 12.5388 0.688159 13.3645 1.56 13.75V54.15Z" fill="#00616D"/>
<path d="M5.26003 9.13C6.45687 9.10355 7.64073 9.38231 8.70003 9.94L35 25.12L35.59 24.78L9.00003 9.43C7.85053 8.81592 6.56305 8.5061 5.26003 8.53C3.96004 8.50468 2.67544 8.81464 1.53003 9.43C-0.469971 10.62 -0.469971 12.55 1.53003 13.75L28.17 29.11L28.76 28.77L28.46 28.59L1.86003 13.23C1.17464 12.9456 0.693925 12.3161 0.600029 11.58C0.67739 10.8488 1.14973 10.219 1.83003 9.94C2.88557 9.38189 4.06633 9.10305 5.26003 9.13Z" fill="#00C1DA"/>
<path fill-rule="evenodd" clip-rule="evenodd" d="M34.9999 65.56V25.12L35.5899 24.78V65.22L34.9999 65.56ZM28.1799 69.5V29.11L28.7699 28.77V69.13L28.1799 69.5Z" fill="#00616D"/>
<defs>
<linearGradient id="paint0_linear" x1="1.58008" y1="13.76" x2="1.58008" y2="69.5" gradientUnits="userSpaceOnUse">
<stop stop-color="#00E2EF"/>
<stop offset="1" stop-color="#00C1DA"/>
</linearGradient>
</defs>
</svg>
