<?xml version="1.0" encoding="UTF-8" standalone="no"?>
<!-- Created with Inkscape (http://www.inkscape.org/) -->

<svg
   xmlns:dc="http://purl.org/dc/elements/1.1/"
   xmlns:cc="http://creativecommons.org/ns#"
   xmlns:rdf="http://www.w3.org/1999/02/22-rdf-syntax-ns#"
   xmlns:svg="http://www.w3.org/2000/svg"
   xmlns="http://www.w3.org/2000/svg"
   xmlns:sodipodi="http://sodipodi.sourceforge.net/DTD/sodipodi-0.dtd"
   xmlns:inkscape="http://www.inkscape.org/namespaces/inkscape"
   width="297mm"
   height="210mm"
   viewBox="0 0 297 210"
   version="1.1"
   id="svg8"
   inkscape:version="0.92.4 5da689c313, 2019-01-14"
   sodipodi:docname="dotsback.svg">
  <defs
     id="defs2" />
  <sodipodi:namedview
     id="base"
     pagecolor="#ffffff"
     bordercolor="#666666"
     borderopacity="1.0"
     inkscape:pageopacity="0.0"
     inkscape:pageshadow="2"
     inkscape:zoom="0.7"
     inkscape:cx="527.74418"
     inkscape:cy="463.91744"
     inkscape:document-units="mm"
     inkscape:current-layer="layer1"
     showgrid="false"
     inkscape:window-width="1920"
     inkscape:window-height="1052"
     inkscape:window-x="0"
     inkscape:window-y="28"
     inkscape:window-maximized="1" />
  <metadata
     id="metadata5">
    <rdf:RDF>
      <cc:Work
         rdf:about="">
        <dc:format>image/svg+xml</dc:format>
        <dc:type
           rdf:resource="http://purl.org/dc/dcmitype/StillImage" />
        <dc:title></dc:title>
      </cc:Work>
    </rdf:RDF>
  </metadata>
  <g
     inkscape:label="Layer 1"
     inkscape:groupmode="layer"
     id="layer1"
     transform="translate(0,-87)">
    <g
       style="fill:none"
       id="g826"
       transform="matrix(0.26458333,0,0,0.26458333,219.98214,141.2738)">
      <path
         id="path815"
         d="M 30,60 C 46.5685,60 60,46.5685 60,30 60,13.4315 46.5685,0 30,0 13.4315,0 0,13.4315 0,30 0,46.5685 13.4315,60 30,60 Z"
         inkscape:connector-curvature="0"
         style="clip-rule:evenodd;opacity:0.1;fill:#fc4343;fill-rule:evenodd" />
    </g>
    <g
       style="fill:none"
       id="g839"
       transform="matrix(0.26458333,0,0,0.26458333,246.55387,185.23244)">
      <path
         id="path828"
         d="M 11,22 C 17.0751,22 22,17.0751 22,11 22,4.92487 17.0751,0 11,0 4.92487,0 0,4.92487 0,11 0,17.0751 4.92487,22 11,22 Z"
         inkscape:connector-curvature="0"
         style="clip-rule:evenodd;opacity:0.1;fill:#00c1da;fill-rule:evenodd" />
    </g>
    <g
       style="fill:none"
       id="g852"
       transform="matrix(0.26458333,0,0,0.26458333,81.907439,200.50268)">
      <path
         id="path841"
         d="M 19,38 C 29.4934,38 38,29.4934 38,19 38,8.50659 29.4934,0 19,0 8.50659,0 0,8.50659 0,19 0,29.4934 8.50659,38 19,38 Z"
         inkscape:connector-curvature="0"
         style="clip-rule:evenodd;opacity:0.1;fill:#53c79e;fill-rule:evenodd" />
    </g>
  </g>
</svg>
