<svg width="90" height="56" viewBox="0 0 90 56" fill="none" xmlns="http://www.w3.org/2000/svg">
<g opacity="0.25">
<path d="M16.7699 40.93C16.5673 40.9278 16.3682 40.8763 16.1899 40.78C14.6799 39.96 9.72992 37.06 9.77992 34.14C9.83884 32.946 10.601 31.9009 11.7199 31.48L44.9999 12.16C50.4099 9.02 50.3799 7.77 50.3699 7.76C50.1699 7.36 48.2199 6.84 46.2399 6.84C45.5661 6.84 45.0199 6.29379 45.0199 5.62C45.0199 4.94621 45.5661 4.4 46.2399 4.4C47.5899 4.4 52.0499 4.59 52.7399 7.13C53.2799 9.13 51.2699 11.35 46.2299 14.28L12.8799 33.63C12.5299 33.81 12.2199 34.02 12.2199 34.18C12.2199 35.18 14.9099 37.31 17.3599 38.63C17.9508 38.9554 18.1694 39.6959 17.8499 40.29C17.6357 40.6864 17.2205 40.9325 16.7699 40.93Z" fill="url(#paint0_linear)"/>
</g>
<g opacity="0.25">
<path opacity="0.2" d="M41.0599 55.21H40.8899C40.2161 55.21 39.6699 54.6638 39.6699 53.99C39.6699 53.3162 40.2161 52.77 40.8899 52.77C40.9499 52.77 46.8899 52.84 50.8899 50.47L80.9999 33C83.1399 31.76 84.5099 30.87 85.3899 30.24C85.0199 30.32 84.6299 30.41 84.2599 30.51C83.6082 30.684 82.9389 30.2967 82.7649 29.645C82.591 28.9933 82.9782 28.324 83.6299 28.15C88.4699 26.85 88.9899 28.09 89.2099 28.62C89.7599 29.95 88.8599 31.27 82.2099 35.12L52.1699 52.58C47.9299 55.09 42.1599 55.21 41.0599 55.21Z" fill="url(#paint1_linear)"/>
</g>
<path d="M5.47006 18.83L32.4701 5.16C32.6584 5.05667 32.852 4.96321 33.0501 4.88L37.5601 2.88C38.8159 2.26477 40.2021 1.96283 41.6001 2L46.8401 2.31C47.5301 2.31 47.6501 3.37 47.0801 4.31L46.7401 4.87C46.359 5.53169 45.8195 6.08836 45.1701 6.49C44.7235 6.80019 44.1581 6.88519 43.6401 6.72L39.3801 4.91C38.9962 4.77981 38.5733 4.83916 38.2401 5.07C38.0998 5.15669 37.9661 5.25362 37.8401 5.36L33.9001 8.73C33.3536 9.20197 32.7682 9.62682 32.1501 10C31.8571 10.1731 31.5531 10.3268 31.2401 10.46L5.33006 21.71C5.03006 21.84 4.80006 21.71 4.82006 21.31L4.90006 19.78C4.92703 19.3903 5.13894 19.0372 5.47006 18.83Z" fill="#C2C3C7"/>
<path d="M45.39 1.4C45.3075 1.35264 45.215 1.32524 45.12 1.32L39.88 1C38.4702 0.948873 37.0693 1.24416 35.8 1.86L31.28 3.86C31.09 3.94 30.9 4.04 30.71 4.14L3.71003 17.81C3.37121 18.0332 3.1594 18.4048 3.14003 18.81L3.07003 20.34C3.04143 20.4982 3.1079 20.6585 3.24003 20.75L4.96003 21.75C4.83176 21.6554 4.76634 21.4976 4.79003 21.34L4.87003 19.81C4.88096 19.4024 5.09485 19.0271 5.44003 18.81L32.44 5.14C32.6284 5.03667 32.822 4.94321 33.02 4.86L37.53 2.86C38.7967 2.24691 40.1936 1.95173 41.6 2L46.84 2.31C46.935 2.31524 47.0275 2.34264 47.11 2.39L45.39 1.4Z" fill="#B3B6C4"/>
<path d="M45.7899 42.22L72.7899 28.55L73.3599 28.27L77.8799 26.27C79.1517 25.6626 80.5513 25.371 81.9599 25.42L87.1999 25.73C87.8899 25.73 88.0099 26.78 87.4399 27.73L87.0999 28.28C86.718 28.9471 86.1747 29.5075 85.5199 29.91C85.0759 30.218 84.513 30.2995 83.9999 30.13L79.7399 28.32C79.3539 28.199 78.9338 28.2617 78.5999 28.49C78.4574 28.5733 78.3234 28.6705 78.1999 28.78L74.2599 32.13C73.7149 32.5979 73.1292 33.0162 72.5099 33.38C72.2148 33.5492 71.9111 33.7027 71.5999 33.84L45.6499 45.11C45.3499 45.24 45.1199 45.11 45.1399 44.7L45.2199 43.18C45.2485 42.7882 45.4596 42.4327 45.7899 42.22Z" fill="#C2C3C7"/>
<path d="M85.7 24.79C85.6208 24.7447 85.5312 24.7206 85.44 24.72L80.2 24.41C78.7913 24.3602 77.3916 24.6518 76.12 25.26L71.6 27.26L71.02 27.54L44.02 41.21C43.6859 41.4375 43.4755 41.8066 43.45 42.21L43.37 43.73C43.3526 43.8868 43.4168 44.0415 43.54 44.14L45.27 45.14C45.1357 45.0502 45.0687 44.8885 45.1 44.73L45.18 43.21C45.1961 42.8038 45.4087 42.4308 45.75 42.21L72.75 28.54L73.32 28.26L77.84 26.26C79.1118 25.6526 80.5114 25.361 81.92 25.41L87.16 25.72C87.2542 25.7218 87.3467 25.7458 87.43 25.79L85.7 24.79Z" fill="#B3B6C4"/>
<path d="M15.7999 37.46L15.6199 37.67C15.4648 37.8354 15.2976 37.9891 15.1199 38.13C14.5363 38.5444 13.8356 38.7616 13.1199 38.75C12.1822 38.6888 11.27 38.4189 10.4499 37.96C8.71467 37.1218 7.16435 35.9455 5.8899 34.5C5.31073 33.7882 4.88514 32.9643 4.63991 32.08C4.10388 29.9252 3.79883 27.7194 3.72991 25.5V25.39C3.72512 25.3067 3.72512 25.2233 3.72991 25.14C3.74173 25.0492 3.75842 24.959 3.77991 24.87C3.87805 24.1623 4.50709 23.6512 5.21991 23.7C5.49389 23.7056 5.76607 23.7459 6.02991 23.82C6.01968 23.9364 6.01968 24.0536 6.02991 24.17C6.09138 26.3927 6.39314 28.6022 6.9299 30.76C7.18832 31.638 7.6164 32.4568 8.18991 33.17C9.46542 34.6059 11.0072 35.7809 12.7299 36.63C13.6377 37.2288 14.714 37.5197 15.7999 37.46Z" fill="#4D9193"/>
<path d="M21.7201 34.81L21.8601 34.89C21.2801 36.96 20.2501 38.89 18.6301 39.89L16.3301 41.23C18.0301 40.23 19.0701 38.14 19.6401 35.97C19.7079 35.7097 19.8195 35.4628 19.9701 35.24L20.0601 35.11L20.1701 35C20.1701 35 20.1701 35 20.2401 35L20.3501 34.93H20.4201C20.7993 34.7635 21.2309 34.7635 21.6101 34.93L21.7201 34.81Z" fill="#00616D"/>
<path d="M38.92 51.33C38.8743 51.4826 38.8209 51.6328 38.76 51.78C38.6345 52.1015 38.4059 52.3723 38.11 52.55C37.9221 52.662 37.7087 52.724 37.49 52.73C36.64 52.8 35.67 52.52 32.95 50.95C30.23 49.38 28.09 46.39 26.76 42.02C26.3494 41.1114 26.1088 40.1353 26.05 39.14C25.7783 38.3471 26.0298 37.4689 26.68 36.94C27.0224 36.757 27.4274 36.7314 27.79 36.87L28.3 37.04C28.3039 37.2985 28.3307 37.5562 28.38 37.81C28.5671 38.7651 28.8041 39.7097 29.09 40.64C30.42 45 32.49 48.02 35.24 49.64C36.3793 50.3769 37.6187 50.946 38.92 51.33Z" fill="#4D9193"/>
<path d="M44.2999 41.34C42.0315 39.443 39.6469 37.6896 37.1599 36.09C30.6599 32.34 26.5399 31.65 24.0299 30.2C21.5199 28.75 17.4099 24.69 10.9099 20.94C8.61507 19.7409 6.22327 18.7373 3.75988 17.94C3.57282 17.8531 3.35694 17.8531 3.16988 17.94L0.879883 19.27C1.0644 19.1874 1.27537 19.1874 1.45988 19.27C3.92071 20.0742 6.31195 21.0775 8.60988 22.27C15.1099 26.03 19.2199 30.08 21.7299 31.53C24.2399 32.98 28.3599 33.67 34.8599 37.43C37.3491 39.0263 39.734 40.7799 41.9999 42.68C42.5469 43.1362 42.88 43.7989 42.9199 44.51V45.43C42.9226 45.5997 42.8849 45.7677 42.8099 45.92L42.1799 46.28C42.0866 46.35 42.0371 46.4641 42.0499 46.58C42.0611 47.091 42.0377 47.6022 41.9799 48.11C41.9306 50.1169 41.5696 52.104 40.9099 54C40.6858 54.5834 40.2742 55.0759 39.7399 55.4L41.9999 54C42.5335 53.6796 42.9452 53.1905 43.1699 52.61C43.8237 50.7159 44.1845 48.733 44.2399 46.73C44.2999 46.28 44.2999 45.64 44.3099 45.2C44.3099 45.2 44.3099 45.13 44.3099 45.09L44.8199 44.8C45.058 44.6324 45.1878 44.3498 45.1599 44.06V43.14C45.1207 42.4503 44.8118 41.8038 44.2999 41.34Z" fill="#4D9193"/>
<path fill-rule="evenodd" clip-rule="evenodd" d="M42.9201 44.51C42.876 43.7972 42.5439 43.133 42.0001 42.67C39.7358 40.7709 37.3508 39.0206 34.8601 37.43C30.843 35.1062 27.7387 33.9589 25.3584 33.0791C23.8873 32.5354 22.6927 32.0939 21.7301 31.54C20.7631 30.9836 19.5635 30.0415 18.085 28.8802C15.7103 27.0151 12.6159 24.5849 8.61011 22.28C7.89011 21.85 1.67011 18.9 0.920109 19.28C0.67298 19.4407 0.537566 19.727 0.570109 20.02C0.417502 20.8893 0.639025 21.7827 1.18011 22.48C1.33 22.6492 1.41812 22.8643 1.43011 23.09C1.43762 26.0203 1.80368 28.9386 2.52011 31.78C2.97513 33.3765 3.75094 34.8635 4.80011 36.15C6.37774 37.9906 8.30497 39.4997 10.4701 40.59C12.3501 41.68 14.4701 42.28 16.3701 41.19C16.4506 41.1425 16.5275 41.089 16.6001 41.03C16.6507 41.0025 16.6977 40.9689 16.7401 40.93L16.8501 40.86C18.2698 39.5751 19.2464 37.8739 19.6401 36C19.7036 35.7382 19.8155 35.4906 19.9701 35.27L20.0401 35.16L20.2001 35L20.3301 34.9C20.7326 34.7119 21.1977 34.7119 21.6001 34.9H21.6601C22.7533 35.7885 23.4884 37.0422 23.7301 38.43C24.7301 43.68 27.4101 50.54 32.8801 53.69C35.7501 55.36 37.1801 55.89 38.5501 55.8C39.12 55.7704 39.6629 55.5483 40.0901 55.17C40.4217 54.868 40.6814 54.4956 40.8501 54.08C41.9601 51.44 42.0101 46.54 42.0101 46.54C42.0063 46.5236 42.0063 46.5064 42.0101 46.49C42.0101 46.49 42.1001 46.36 42.1301 46.36C42.2613 46.3472 42.3896 46.3135 42.5101 46.26L42.5801 46.21C42.6022 46.1769 42.6175 46.1681 42.632 46.1598C42.657 46.1456 42.6796 46.1327 42.7301 46C42.8681 45.5157 42.9322 45.0134 42.9201 44.51ZM15.1201 38.13C12.3001 40.13 7.30011 36.21 5.90011 34.5C5.32093 33.7882 4.89534 32.9643 4.65011 32.08C4.03098 29.7282 3.74486 27.3013 3.80011 24.87C4.10011 23.44 5.48011 23.51 6.80011 24.08C9.80011 25.27 14.3201 28.74 15.6501 29.87C16.7037 30.7762 17.3428 32.0724 17.4201 33.46C17.2085 35.2334 16.3969 36.8812 15.1201 38.13ZM37.4901 52.73C38.0664 52.6986 38.5673 52.3239 38.7601 51.78C39.3492 49.9534 39.6626 48.0491 39.6901 46.13C39.6901 43.48 36.7401 41.17 34.8401 40.08C32.6136 38.7506 30.2456 37.6739 27.7801 36.87C26.7101 36.54 26.0001 37.22 26.0001 38.42C26.0001 40 27.8701 48 32.9501 50.94C35.4401 52.38 36.4601 52.73 37.2701 52.73H37.4901Z" fill="url(#paint2_linear)"/>
<defs>
<linearGradient id="paint0_linear" x1="7.6724" y1="112.536" x2="92.0383" y2="27.1057" gradientUnits="userSpaceOnUse">
<stop stop-color="#292376"/>
<stop offset="1" stop-color="#5D278F" stop-opacity="0.01"/>
</linearGradient>
<linearGradient id="paint1_linear" x1="7433.67" y1="3158.78" x2="7956.36" y2="944.647" gradientUnits="userSpaceOnUse">
<stop stop-color="#292376"/>
<stop offset="1" stop-color="#5D278F" stop-opacity="0.01"/>
</linearGradient>
<linearGradient id="paint2_linear" x1="-26.2422" y1="37.2219" x2="13.8568" y2="81.1716" gradientUnits="userSpaceOnUse">
<stop stop-color="#00C1DA"/>
<stop offset="1" stop-color="#00DFDA"/>
</linearGradient>
</defs>
</svg>
