<svg width="111" height="69" viewBox="0 0 111 69" fill="none" xmlns="http://www.w3.org/2000/svg">
<path d="M35.9919 49.7848L83.7482 17.4072L110.449 37.3998L64.8432 68.3275C63.5606 69.227 61.8407 69.1845 60.6042 68.2227L35.9919 49.7848Z" fill="#F3F4F6"/>
<path d="M0.611816 28.8577L48.3593 1.12671L75.0692 14.8132L27.313 42.5442L0.611816 28.8577Z" fill="#00C1DA"/>
<path d="M27.313 42.5442L75.0692 14.8132L75.1479 16.5775L27.3916 44.3085L27.313 42.5442Z" fill="#688D92"/>
<path d="M27.3916 44.3085L75.1478 16.5775L78.2418 18.368L30.4856 46.099L27.3916 44.3085Z" fill="#00C1DA"/>
<path d="M32.3824 47.8021L80.1386 20.0711L80.0599 21.6258L32.3037 49.3568L32.3824 47.8021Z" fill="#688D92"/>
<path d="M30.5731 44.4308L57.2743 61.5498L57.1606 63.6984L32.3823 47.8022L32.3036 49.3568L25.565 45.4701L25.495 43.8281L0.707958 31.1286L0.611816 28.8577L27.313 42.5442L27.3917 44.3085L30.4857 46.099L30.5731 44.4308Z" fill="#3A6D6E"/>
<path d="M57.2743 61.5497L105.03 33.8187L104.917 35.9673L57.1606 63.6983L57.2743 61.5497Z" fill="#4D9193"/>
<path d="M30.573 44.4308L78.3292 16.691L105.03 33.8187L57.2742 61.5497L30.573 44.4308Z" fill="#00C1DA"/>
<path d="M75.9345 17.1889L75.8384 18.8571L34.2702 42.9984L33.6846 42.6228L32.9067 43.077L32.9504 42.1512L75.9345 17.1889Z" fill="white"/>
<path d="M5.18286 25.1806L48.167 0.218353C54.6757 0.986902 60.9706 3.02246 66.6961 6.21C72.7705 9.70367 74.0728 14.3677 74.3 16.8919L31.3247 41.8542C31.0887 39.33 29.7864 34.6747 23.712 31.1723C17.989 27.9791 11.6929 25.9432 5.18286 25.1806Z" fill="#EBECF0"/>
<path d="M57.4665 55.3397L57.2917 57.7591L33.6933 42.6228L32.9591 42.1511L32.9154 43.077L32.2599 43.4525L29.7777 42.0289L29.6991 40.282L5.34897 27.8009L5.19165 25.1806C11.7032 25.9434 18.0016 27.9761 23.7295 31.1635C29.7952 34.6572 31.0975 39.33 31.3247 41.8454C31.5694 39.6008 32.8979 36.4565 38.9636 39.9589C47.7038 45.0072 56.9771 54.8244 57.4665 55.3397Z" fill="#B0B1B4"/>
<path d="M81.9391 15.0053C78.8713 13.2585 77.0184 13.1624 75.8997 13.8087L32.9243 38.771C34.0431 38.116 35.896 38.1946 38.955 39.9676C47.6952 45.0072 56.9772 54.8157 57.4667 55.3398L100.442 30.3862C99.9526 29.8709 90.688 20.0886 81.9391 15.0053Z" fill="url(#paint0_linear)"/>
<path d="M57.4666 55.3397L100.442 30.3862L100.276 32.8056L57.2917 57.7591L57.4666 55.3397Z" fill="url(#paint1_linear)"/>
<path d="M52.2837 20.7524L35.0219 30.7705C33.7345 29.2973 32.203 28.0564 30.4945 27.1022C26.1508 24.6634 21.4624 22.8965 16.5889 21.8617L33.8856 11.8174C38.7346 12.8509 43.3973 14.6181 47.7126 17.0579C49.4361 18.0197 50.9821 19.2693 52.2837 20.7524Z" fill="white"/>
<path d="M67.1419 12.8916L55.9982 19.4161C54.7108 17.9428 53.1793 16.7019 51.4708 15.7477C47.1271 13.3089 42.4387 11.542 37.5652 10.5072L48.7438 3.95657C53.5928 4.99012 58.2555 6.75731 62.5708 9.19708C64.2943 10.1589 65.8403 11.4085 67.1419 12.8916Z" fill="white"/>
<path opacity="0.08" d="M70.3234 42.9197L61.1812 48.2127C57.6851 44.7801 51.567 39.2776 45.7198 35.8975C45.2915 35.6529 44.8982 35.4346 44.5137 35.2599L53.6471 29.9495C54.0142 30.1329 54.3988 30.3425 54.8096 30.5784C60.6917 33.9585 66.7836 39.4785 70.3234 42.9197Z" fill="#4E7FFF"/>
<path opacity="0.08" d="M92.6458 29.9757L72.893 41.4262C69.3445 37.9849 63.3313 32.561 57.5453 29.1983C57.0559 28.9101 56.6014 28.6743 56.1731 28.4734L75.9171 17.0054C76.3192 17.1976 76.7387 17.4247 77.1932 17.6867C83.0316 21.0668 89.0623 26.5344 92.6458 29.9757Z" fill="#4E7FFF"/>
<defs>
<linearGradient id="paint0_linear" x1="12776.8" y1="22076.2" x2="12544.3" y2="20539.6" gradientUnits="userSpaceOnUse">
<stop stop-color="#DBF9EA"/>
<stop offset="0.97" stop-color="white"/>
</linearGradient>
<linearGradient id="paint1_linear" x1="7800.81" y1="13745.7" x2="7190.77" y2="14536.8" gradientUnits="userSpaceOnUse">
<stop stop-color="#DBF9EA"/>
<stop offset="0.97" stop-color="white"/>
</linearGradient>
</defs>
</svg>
