<svg width="100" height="94" viewBox="0 0 100 94" fill="none" xmlns="http://www.w3.org/2000/svg">
<path opacity="0.061481" d="M6.33997 66L51.41 92C52.8202 92.7194 54.4898 92.7194 55.9 92L85.69 74.69C86.93 73.97 86.92 72.81 85.69 72.09L40.61 46.09C39.1975 45.3802 37.5325 45.3802 36.12 46.09L6.32997 63.41C5.09997 64.13 5.09997 65.29 6.32997 66.01" fill="url(#paint0_linear)"/>
<path d="M96.2099 26.51C97.5243 27.4688 98.0428 29.1835 97.4799 30.71L84.4099 69.26C83.8599 70.86 82.4099 71.58 81.1699 70.86L36.0999 44.86C34.7797 43.9053 34.2599 42.1863 34.8299 40.66L47.8999 2.09999C48.4499 0.509988 49.8999 -0.210012 51.1399 0.509988L96.2099 26.51Z" fill="#160C0C"/>
<path d="M96.21 26.51L51.14 0.509988C49.9 -0.210012 48.45 0.509988 47.91 2.09999L34.83 40.66C34.2672 42.1865 34.7856 43.9011 36.1 44.86L81.17 70.86C82.42 71.58 83.86 70.86 84.41 69.27L97.48 30.71C98.0501 29.1837 97.5303 27.4647 96.21 26.51Z" fill="#35363A"/>
<path d="M97.8899 26.48L52.8099 0.479991C52.506 0.303738 52.1611 0.210615 51.8099 0.209991H50.1299C50.4821 0.213649 50.827 0.310238 51.1299 0.489991L96.1999 26.49C97.5143 27.4488 98.0328 29.1635 97.4699 30.69L84.3999 69.24C84.1366 70.264 83.262 71.0148 82.2099 71.12H83.8899C84.9403 71.0237 85.8148 70.2735 86.0699 69.25L99.1499 30.69C99.7235 29.163 99.2081 27.4408 97.8899 26.48Z" fill="url(#paint1_linear)"/>
<path d="M95.2301 29.73L49.9801 3.60001L37.0801 41.62L82.3401 67.75L95.2301 29.73Z" fill="url(#paint2_linear)"/>
<path d="M81.0001 70.38C81.5499 70.5758 81.9171 71.0963 81.9171 71.68C81.9171 72.2636 81.5499 72.7842 81.0001 72.98L51.2101 90.29C49.7999 91.0094 48.1303 91.0094 46.7201 90.29L1.64011 64.29C1.09031 64.0942 0.723145 63.5736 0.723145 62.99C0.723145 62.4063 1.09031 61.8858 1.64011 61.69L31.4301 44.38C32.8403 43.6605 34.5099 43.6605 35.9201 44.38L81.0001 70.38Z" fill="url(#paint3_linear)"/>
<path d="M81.0001 70.38L35.9301 44.38C34.5199 43.6605 32.8503 43.6605 31.4401 44.38L1.65012 61.69C1.10032 61.8858 0.733154 62.4063 0.733154 62.99C0.733154 63.5736 1.10032 64.0942 1.65012 64.29L46.7301 90.29C48.1426 90.9998 49.8076 90.9998 51.2201 90.29L81.0001 73C82.2301 72.28 82.2301 71.12 81.0001 70.4" fill="url(#paint4_linear)"/>
<path opacity="0.341882" d="M74.1899 72.06C74.4299 72.2 74.4299 72.42 74.1899 72.56L60.9099 80.27C60.6351 80.4028 60.3147 80.4028 60.0399 80.27L18.3599 56.2C18.2583 56.1586 18.1919 56.0597 18.1919 55.95C18.1919 55.8403 18.2583 55.7414 18.3599 55.7L31.6399 48C31.9094 47.8595 32.2305 47.8595 32.4999 48L74.1899 72.06Z" fill="#4D9193"/>
<path d="M51.21 90.31C49.7998 91.0295 48.1302 91.0295 46.72 90.31L1.63996 64.31C1.11453 64.0753 0.75826 63.5734 0.709961 63V65.48C0.762237 66.0549 1.12204 66.5564 1.64996 66.79L46.72 92.79C48.1302 93.5095 49.7998 93.5095 51.21 92.79L81 75.46C81.5184 75.2293 81.8707 74.7353 81.92 74.17V71.69C81.8757 72.262 81.5229 72.7642 81 73L51.21 90.31Z" fill="#CECECE"/>
<path opacity="0.05" d="M79.2299 72.49L78.3799 72C78.1079 71.8704 77.7919 71.8704 77.5199 72L61.7799 81.15C61.6683 81.1819 61.5913 81.2839 61.5913 81.4C61.5913 81.5161 61.6683 81.6181 61.7799 81.65L62.6299 82.14C62.8993 82.2805 63.2204 82.2805 63.4899 82.14L79.2399 73C79.4699 72.87 79.4699 72.64 79.2399 72.5" fill="url(#paint5_linear)"/>
<path opacity="0.05" d="M33.23 45.93L32.38 45.44C32.108 45.3104 31.792 45.3104 31.52 45.44L15.77 54.59C15.54 54.73 15.53 54.95 15.77 55.09L16.62 55.58C16.8895 55.7205 17.2106 55.7205 17.48 55.58L33.23 46.43C33.3316 46.3886 33.398 46.2897 33.398 46.18C33.398 46.0703 33.3316 45.9715 33.23 45.93Z" fill="url(#paint6_linear)"/>
<path opacity="0.05" d="M47.7201 75.32L27.5001 63.64C26.9585 63.3704 26.3218 63.3704 25.7801 63.64L15.4001 69.64C15.1769 69.7038 15.0229 69.9078 15.0229 70.14C15.0229 70.3722 15.1769 70.5762 15.4001 70.64L35.6201 82.32C36.1606 82.5944 36.7996 82.5944 37.3401 82.32L47.7301 76.32C47.9534 76.2562 48.1073 76.0522 48.1073 75.82C48.1073 75.5878 47.9534 75.3838 47.7301 75.32" fill="url(#paint7_linear)"/>
<defs>
<linearGradient id="paint0_linear" x1="21585.2" y1="-25306.8" x2="23605.5" y2="-26262.3" gradientUnits="userSpaceOnUse">
<stop stop-color="#292376"/>
<stop offset="1" stop-color="#5D278F" stop-opacity="0.01"/>
</linearGradient>
<linearGradient id="paint1_linear" x1="98.176" y1="-8.31593" x2="40.2236" y2="-6.33548" gradientUnits="userSpaceOnUse">
<stop stop-color="#DBF9EA"/>
<stop offset="1" stop-color="#C0DDE2"/>
</linearGradient>
<linearGradient id="paint2_linear" x1="37.0801" y1="3.60001" x2="37.0801" y2="67.75" gradientUnits="userSpaceOnUse">
<stop stop-color="#00E2EF"/>
<stop offset="1" stop-color="#00C1DA"/>
</linearGradient>
<linearGradient id="paint3_linear" x1="62007.7" y1="26636.7" x2="68601.5" y2="26636.7" gradientUnits="userSpaceOnUse">
<stop stop-color="#DBF9EA"/>
<stop offset="1" stop-color="#C0DDE2"/>
</linearGradient>
<linearGradient id="paint4_linear" x1="62004.3" y1="26632.6" x2="68597.7" y2="26632.6" gradientUnits="userSpaceOnUse">
<stop stop-color="white"/>
<stop offset="1" stop-color="#C0DDE2"/>
</linearGradient>
<linearGradient id="paint5_linear" x1="61.5999" y1="82.2381" x2="79.4099" y2="82.2381" gradientUnits="userSpaceOnUse">
<stop stop-color="#5D278F"/>
<stop offset="1" stop-color="#292376"/>
</linearGradient>
<linearGradient id="paint6_linear" x1="13877.8" y1="5396.73" x2="14194.9" y2="5396.73" gradientUnits="userSpaceOnUse">
<stop stop-color="#5D278F"/>
<stop offset="1" stop-color="#292376"/>
</linearGradient>
<linearGradient id="paint7_linear" x1="25756" y1="10514.5" x2="26849.1" y2="10514.5" gradientUnits="userSpaceOnUse">
<stop stop-color="#5D278F"/>
<stop offset="1" stop-color="#292376"/>
</linearGradient>
</defs>
</svg>
