<svg width="17" height="21" viewBox="0 0 17 21" fill="none" xmlns="http://www.w3.org/2000/svg">
<path opacity="0.4" fill-rule="evenodd" clip-rule="evenodd" d="M0 8.21739C0 3.10435 4.34444 0 8.5 0C12.6556 0 17 3.10435 17 8.21739C17 13.0565 9.44444 20.4522 9.16111 20.7261C8.97222 20.9087 8.78333 21 8.5 21C8.21667 21 8.02778 20.9087 7.83889 20.7261C7.55556 20.4522 0 13.0565 0 8.21739ZM4.76 7.875C4.76 9.73438 6.23333 11.1562 8.16 11.1562C10.0867 11.1562 11.56 9.73438 11.56 7.875C11.56 6.01562 10.0867 4.59375 8.16 4.59375C6.23333 4.59375 4.76 6.01562 4.76 7.875Z" fill="#444444"/>
</svg>
