<svg width="49" height="42" viewBox="0 0 49 42" fill="none" xmlns="http://www.w3.org/2000/svg">
<path d="M42.4601 20.69C34.8001 16.26 22.4001 16.26 14.7801 20.69C7.16009 25.12 7.21009 32.3 14.8701 36.69C22.5301 41.08 34.9301 41.12 42.5501 36.69C50.1701 32.26 50.1301 25.09 42.4601 20.69" fill="url(#paint0_linear)"/>
<path d="M43 22.79C43 23.1433 42.98 23.4767 42.94 23.79C46.24 19.85 48.34 15.36 48.34 11.79C48.46 9.66875 47.4282 7.6473 45.64 6.5C44.7881 5.93621 43.7915 5.63061 42.77 5.62C41.6155 5.63804 40.4854 5.95501 39.49 6.54C39.7481 6.76809 39.9919 7.01189 40.22 7.27C40.9696 8.05858 41.5966 8.95524 42.08 9.93C42.4926 9.70159 42.9497 9.56514 43.42 9.53C43.4963 9.52027 43.5736 9.52027 43.65 9.53C44.0113 10.0577 44.184 10.6919 44.14 11.33C44.0615 12.8575 43.6773 14.3537 43.01 15.73C43.01 16 43.01 16.27 43.01 16.56C43.01 17.95 43.01 19.65 43.01 21.78L43 22.79Z" fill="#00616D"/>
<path opacity="0.25" d="M45.12 12.4C45.2224 11.3104 44.739 10.2483 43.85 9.61L43.66 9.56C44.36 10.41 44.33 12.76 43.02 15.75C43.02 16.02 43.02 16.31 43.02 16.6C43.02 17.2 43.02 17.86 43.02 18.6C44.2579 16.7563 44.9827 14.6164 45.12 12.4Z" fill="url(#paint1_linear)"/>
<path d="M21.9 41.86C32.27 41.86 42.66 35.56 43.01 22.79V21.79C43.01 19.66 43.01 17.96 43.01 16.57C43.01 12.48 43.01 10.28 40.22 7.23999C36.22 2.90999 29.09 0.769989 21.98 0.769989C14.24 0.769989 6.50999 3.29999 2.78999 8.26999C2.24086 9.00832 1.79039 9.81512 1.44999 10.67C1.14096 11.4578 0.948919 12.2866 0.879992 13.13C0.851526 13.5862 0.851526 14.0438 0.879992 14.5C0.879992 15.68 0.879992 18 0.879992 22.89C1.05999 35.49 11.47 41.86 21.9 41.86Z" fill="url(#paint2_linear)"/>
<g opacity="0.35">
<path d="M21.87 27H21.23C20.6777 27 20.23 26.5523 20.23 26C20.23 25.4477 20.6777 25 21.23 25C26.3513 25.1967 31.4373 24.0741 36 21.74C36.4673 21.5288 37.0186 21.7053 37.2763 22.1486C37.5341 22.5919 37.4147 23.1584 37 23.46C32.3323 25.8873 27.1301 27.1045 21.87 27V27Z" fill="url(#paint3_linear)"/>
</g>
<path d="M22.0001 23.51C11.4401 23.51 2.33008 19.1 2.33008 13.17C2.33008 5.46999 13.9201 1.76999 21.8001 1.76999C31.8701 1.76999 41.4901 6.32999 41.5101 13.07C41.3501 18.85 32.5301 23.51 22.0001 23.51Z" fill="url(#paint4_linear)"/>
<path d="M22.0001 22.89C12.7701 22.89 4.81006 19.04 4.81006 13.89C4.81006 7.15998 14.9401 3.88998 21.8101 3.88998C30.6201 3.88998 39.0201 7.88998 39.0401 13.76C38.8901 18.82 31.1901 22.89 22.0001 22.89Z" fill="url(#paint5_linear)"/>
<path d="M22.0001 22.89C29.0001 22.89 35.0901 20.55 37.7001 17.21C37.2023 16.5388 36.621 15.9339 35.9701 15.41C35.098 14.6632 34.1455 14.0159 33.1301 13.48C32.1301 12.99 30.9301 12.75 29.8601 12.33C29.0132 11.8991 28.121 11.5637 27.2001 11.33C26.294 11.2385 25.3791 11.2925 24.4901 11.49C22.7122 11.7515 20.9171 11.8785 19.1201 11.87C16.8901 11.87 14.5901 11.64 12.5001 12.41C10.4314 13.2832 8.5606 14.5655 7.00006 16.18C6.65435 16.5285 6.33981 16.9066 6.06006 17.31C8.69006 20.66 15.0001 22.89 22.0001 22.89Z" fill="url(#paint6_linear)"/>
<defs>
<linearGradient id="paint0_linear" x1="653.701" y1="12697.3" x2="884.023" y2="12281.7" gradientUnits="userSpaceOnUse">
<stop stop-color="#292376"/>
<stop offset="1" stop-color="#5D278F" stop-opacity="0.01"/>
</linearGradient>
<linearGradient id="paint1_linear" x1="44.1262" y1="6.3947" x2="41.3886" y2="6.88927" gradientUnits="userSpaceOnUse">
<stop stop-color="#AD4B5C"/>
<stop offset="1" stop-color="#FB4E45" stop-opacity="0.01"/>
</linearGradient>
<linearGradient id="paint2_linear" x1="0.858643" y1="0.769989" x2="0.858643" y2="41.86" gradientUnits="userSpaceOnUse">
<stop stop-color="#00E2EF"/>
<stop offset="1" stop-color="#00C1DA"/>
</linearGradient>
<linearGradient id="paint3_linear" x1="20.26" y1="26.995" x2="37.49" y2="26.995" gradientUnits="userSpaceOnUse">
<stop offset="0.03" stop-color="white"/>
<stop offset="1" stop-color="#DBF9EA" stop-opacity="0.01"/>
</linearGradient>
<linearGradient id="paint4_linear" x1="28.4651" y1="28.0841" x2="37.0036" y2="4.17702" gradientUnits="userSpaceOnUse">
<stop stop-color="#DBF9EA"/>
<stop offset="0.97" stop-color="white"/>
</linearGradient>
<linearGradient id="paint5_linear" x1="19.5563" y1="-2.583" x2="8.0639" y2="21.8811" gradientUnits="userSpaceOnUse">
<stop stop-color="#DBF9EA" stop-opacity="0.01"/>
<stop offset="1" stop-color="#8CCACE"/>
</linearGradient>
<linearGradient id="paint6_linear" x1="16.363" y1="26.9205" x2="32.9695" y2="3.89625" gradientUnits="userSpaceOnUse">
<stop stop-color="#534741"/>
<stop offset="1" stop-color="#D1985C"/>
</linearGradient>
</defs>
</svg>
