<?xml version="1.0" standalone="no"?>
<!DOCTYPE svg PUBLIC "-//W3C//DTD SVG 20010904//EN"
 "http://www.w3.org/TR/2001/REC-SVG-20010904/DTD/svg10.dtd">
<svg version="1.0" xmlns="http://www.w3.org/2000/svg"
 width="700.000000pt" height="700.000000pt" viewBox="0 0 700.000000 700.000000"
 preserveAspectRatio="xMidYMid meet">
<metadata>
Created by potrace 1.14, written by Peter Selinger 2001-2017
</metadata>
<g transform="translate(0.000000,700.000000) scale(0.100000,-0.100000)"
fill="#000000" stroke="none">
<path d="M3482 6135 c-405 -46 -640 -140 -818 -326 -139 -147 -224 -319 -276
-562 -18 -86 -21 -137 -22 -317 -1 -118 3 -240 7 -271 l8 -56 -70 -52 c-82
-61 -158 -142 -163 -174 -7 -41 13 -77 52 -97 45 -23 199 -50 286 -50 64 0 73
-4 123 -62 l24 -28 -114 -117 c-63 -65 -152 -169 -199 -231 -75 -101 -87 -112
-110 -107 -105 21 -410 50 -700 66 -417 23 -984 -10 -1161 -67 -96 -31 -175
-132 -186 -238 -4 -36 4 -92 25 -191 45 -203 79 -384 192 -1005 149 -825 183
-964 242 -1000 83 -50 1399 -341 1750 -387 106 -14 141 -15 196 -5 144 25
1469 397 1494 419 10 9 20 30 24 48 8 44 31 37 68 -21 15 -24 53 -70 85 -102
288 -292 763 -295 1054 -6 64 63 93 102 142 186 l40 70 85 33 c257 99 515 267
688 449 270 285 429 645 517 1171 73 442 92 862 50 1135 -50 331 -158 425
-411 360 -111 -29 -234 -87 -499 -235 -520 -290 -705 -359 -1025 -380 -87 -6
-347 8 -358 19 -1 2 38 42 87 90 185 181 304 400 352 646 17 86 17 307 0 400
-45 255 -171 486 -361 662 -192 179 -368 274 -600 324 -104 22 -363 27 -518 9z
m552 -139 c288 -75 577 -310 714 -582 74 -147 107 -297 106 -484 -1 -122 -5
-161 -27 -241 -65 -247 -213 -458 -442 -632 -75 -56 -87 -80 -58 -116 40 -49
384 -90 598 -71 334 29 492 87 995 368 363 203 501 262 608 262 66 0 88 -14
115 -72 96 -205 100 -689 11 -1267 -110 -711 -365 -1136 -859 -1430 -95 -56
-255 -134 -263 -127 -1 2 5 45 14 97 18 106 13 170 -17 239 -51 115 -135 137
-242 63 -22 -15 -83 -77 -135 -138 -52 -60 -98 -111 -103 -113 -7 -3 -17 37
-39 163 -25 143 -72 230 -143 264 -54 26 -87 26 -138 1 -72 -37 -133 -152
-180 -337 -13 -51 -26 -93 -29 -92 -3 0 -36 40 -73 90 -113 149 -221 217 -329
207 -56 -6 -94 -30 -123 -79 -17 -29 -20 -52 -20 -149 l0 -116 -225 32 c-124
18 -235 34 -248 36 -20 3 -15 11 54 88 105 114 176 173 259 215 102 50 185 66
395 75 237 11 305 29 426 116 161 114 280 346 309 601 6 54 4 64 -14 82 -26
26 -63 27 -83 4 -9 -10 -21 -56 -27 -103 -36 -251 -158 -450 -325 -529 -84
-40 -147 -51 -286 -51 -275 0 -446 -55 -608 -195 -31 -27 -104 -101 -161 -163
-125 -136 -170 -165 -255 -166 -235 -2 -423 241 -402 519 29 392 361 771 951
1086 109 58 128 82 101 124 -11 17 -26 25 -44 25 -50 0 -296 -138 -477 -268
-370 -265 -586 -559 -640 -871 -28 -157 -11 -298 49 -424 24 -50 28 -66 17
-63 -9 2 -41 7 -72 11 -47 5 -61 12 -91 43 l-35 37 -12 705 c-13 749 -20 897
-45 935 -9 14 -34 29 -58 36 -24 7 -46 15 -51 19 -16 14 316 390 345 390 4 0
38 -22 75 -49 85 -62 225 -132 332 -167 76 -24 83 -25 105 -10 52 34 37 98
-26 111 -90 19 -292 120 -363 181 l-30 25 30 -5 c17 -4 80 -9 142 -12 134 -8
211 5 302 49 114 57 259 209 332 352 l34 64 -21 28 c-37 50 -207 194 -312 263
-186 123 -240 128 -427 33 -66 -33 -172 -91 -235 -129 -63 -38 -118 -70 -121
-72 -3 -1 -3 25 -1 58 4 53 0 69 -27 124 -38 77 -40 124 -12 288 87 505 356
750 901 822 177 24 184 24 365 21 144 -3 185 -7 269 -29z m-858 -1167 c61 -32
203 -136 289 -212 l50 -44 -28 -36 c-58 -77 -250 -143 -499 -171 -158 -19
-512 -21 -625 -4 l-77 11 41 36 c161 144 678 450 759 451 18 0 58 -14 90 -31z
m-11 -574 c-22 -8 -62 -13 -90 -13 -50 0 -50 0 20 13 92 16 120 16 70 0z
m-1530 -616 c294 -17 734 -74 758 -98 17 -17 27 -331 37 -1266 9 -802 14 -972
25 -984 12 -12 8 -20 -24 -57 -47 -53 -64 -110 -59 -198 3 -61 1 -66 -17 -66
-88 0 -957 184 -1430 302 l-250 63 -22 79 c-36 123 -66 278 -183 921 -60 330
-125 679 -145 775 -20 96 -39 189 -42 207 l-5 31 71 22 c109 32 290 68 446 87
197 25 721 25 960 -1 183 -19 453 -61 463 -71 13 -13 22 -626 19 -1346 -2
-703 -1 -728 17 -748 26 -29 60 -26 85 5 21 27 21 31 20 883 0 471 -4 950 -8
1065 -8 209 -8 210 -34 232 -37 32 -206 64 -527 99 -221 25 -715 31 -921 11
-185 -17 -393 -53 -516 -89 l-82 -24 14 26 c20 39 66 77 105 89 194 58 749 81
1245 51z m3199 -1584 c28 -30 41 -71 67 -217 11 -62 29 -132 40 -156 21 -42
61 -72 97 -72 34 0 99 54 182 150 80 94 129 143 162 161 14 7 21 3 35 -23 54
-103 -34 -415 -159 -564 -223 -268 -597 -310 -875 -100 -79 60 -143 145 -204
271 -76 156 -109 322 -79 401 10 24 14 26 52 21 56 -8 112 -50 186 -143 34
-44 84 -103 110 -131 43 -48 52 -53 89 -53 56 0 85 35 108 132 51 214 110 348
152 348 8 0 24 -11 37 -25z m-2130 -281 c138 -16 162 -21 154 -30 -3 -3 -69 2
-146 10 -78 9 -148 16 -157 16 -8 0 -15 5 -15 10 0 13 10 13 164 -6z m107 -70
c79 -8 147 -19 152 -23 4 -4 -43 -17 -105 -28 -116 -21 -123 -21 -315 7 -2 0
-3 11 -3 24 0 39 57 44 271 20z m814 -55 c50 -7 94 -15 98 -19 4 -4 -16 -12
-45 -18 -29 -6 -192 -43 -363 -81 -348 -78 -631 -136 -718 -147 -54 -6 -59 -5
-55 12 3 15 34 24 193 56 254 50 640 135 703 153 39 12 52 21 52 35 0 10 -6
21 -12 24 -7 3 3 4 22 1 19 -2 76 -10 125 -16z m-526 -14 c72 -15 137 -13 189
6 13 5 42 6 65 2 l42 -7 -90 -23 c-49 -12 -110 -23 -134 -23 -66 0 -271 23
-271 30 0 6 68 22 115 29 6 0 43 -6 84 -14z m-489 -25 c0 -5 -9 -10 -19 -10
-11 0 -26 -3 -35 -6 -11 -4 -16 -1 -16 10 0 12 10 16 35 16 19 0 35 -4 35 -10z
m295 -31 c66 -6 123 -15 127 -18 4 -4 -65 -21 -155 -39 -161 -33 -162 -33
-232 -17 -99 23 -105 25 -105 39 0 13 201 57 230 50 8 -1 69 -8 135 -15z
m1115 -31 c0 -12 -7 -60 -17 -108 l-16 -87 -346 -98 c-496 -140 -994 -275
-998 -271 -2 2 3 29 12 62 20 78 19 140 -4 191 l-20 42 52 10 c29 6 102 20
162 31 102 20 695 150 1020 225 77 17 143 30 148 28 4 -2 7 -14 7 -25z m-1420
-68 l25 -7 -30 -7 c-16 -4 -36 -9 -42 -12 -8 -2 -13 5 -13 16 0 21 16 24 60
10z m0 -288 c5 -20 10 -44 10 -52 0 -35 -32 -134 -52 -162 -19 -28 -25 -30
-65 -25 -24 2 -46 7 -49 10 -3 3 -8 32 -11 65 -9 94 24 168 89 204 40 22 64
10 78 -40z"/>
<path d="M3745 4837 c-31 -31 -55 -88 -55 -132 0 -44 24 -101 55 -132 27 -27
41 -33 75 -33 118 0 168 197 75 295 -27 29 -39 35 -75 35 -34 0 -48 -6 -75
-33z"/>
</g>
</svg>
