<?xml version="1.0" standalone="no"?>
<!DOCTYPE svg PUBLIC "-//W3C//DTD SVG 20010904//EN"
 "http://www.w3.org/TR/2001/REC-SVG-20010904/DTD/svg10.dtd">
<svg version="1.0" xmlns="http://www.w3.org/2000/svg"
 width="700.000000pt" height="700.000000pt" viewBox="0 0 700.000000 700.000000"
 preserveAspectRatio="xMidYMid meet">
<metadata>
Created by potrace 1.11, written by Peter Selinger 2001-2013
</metadata>
<g transform="translate(0.000000,700.000000) scale(0.100000,-0.100000)"
fill="#000000" stroke="none">
<path d="M3870 5396 l0 -1605 48 -49 c98 -102 432 -449 487 -507 51 -54 257
-269 535 -558 58 -61 125 -131 150 -157 64 -67 404 -422 470 -490 105 -110
425 -443 465 -485 104 -109 175 -182 198 -203 l25 -23 75 103 c217 298 378
611 496 964 45 135 106 366 116 436 2 15 6 35 9 45 3 10 8 43 11 73 4 30 8 57
10 60 2 3 6 39 10 80 4 41 9 89 12 105 2 17 6 138 7 270 3 217 -1 315 -19 462
-79 672 -349 1302 -783 1831 -138 168 -338 365 -527 518 -86 69 -338 244 -352
244 -3 0 -17 8 -31 19 -63 45 -279 154 -439 222 -204 87 -537 184 -733 215
-19 3 -60 9 -90 14 -30 5 -76 11 -102 15 l-48 6 0 -1605z"/>
<path d="M2731 6933 c-277 -62 -530 -153 -789 -284 -176 -89 -229 -119 -328
-184 -99 -64 -96 -62 -218 -154 -629 -474 -1083 -1155 -1282 -1920 -19 -74
-37 -151 -40 -170 -3 -20 -7 -44 -10 -53 -3 -10 -7 -30 -10 -45 -41 -240 -49
-342 -48 -623 0 -203 7 -345 19 -408 1 -9 6 -46 10 -82 5 -54 25 -165 51 -286
30 -146 118 -421 184 -579 37 -88 135 -294 160 -335 5 -8 25 -44 46 -80 54
-95 196 -310 205 -310 6 0 75 69 211 211 35 37 142 149 239 250 97 101 198
207 224 234 26 28 136 142 245 255 109 113 217 225 240 250 24 25 125 131 225
235 101 105 206 215 235 245 90 95 412 431 470 490 30 31 83 85 117 121 l61
65 0 1597 0 1597 -35 -2 c-19 -1 -101 -17 -182 -35z"/>
<path d="M3870 1227 l0 -1229 38 6 c20 3 60 9 87 12 40 5 227 40 317 59 104
22 377 111 508 166 217 89 486 235 647 350 32 23 70 48 85 57 16 10 28 19 28
22 0 5 -70 79 -259 276 -160 165 -507 527 -571 594 -29 30 -143 149 -254 265
-110 115 -240 250 -287 300 -48 49 -143 149 -213 220 l-125 130 -1 -1228z"/>
<path d="M2876 2367 c-71 -75 -367 -384 -471 -492 -87 -90 -413 -430 -476
-497 -30 -31 -133 -139 -230 -240 -344 -357 -369 -383 -368 -393 0 -5 16 -22
37 -36 20 -15 82 -59 137 -99 55 -40 109 -76 120 -80 12 -4 27 -15 34 -24 7
-9 18 -16 23 -16 5 0 32 -15 61 -33 63 -41 299 -159 420 -210 145 -62 464
-163 578 -182 19 -3 42 -8 51 -11 23 -7 56 -13 109 -20 l47 -6 0 1206 c0 663
-1 1206 -2 1206 0 0 -32 -33 -70 -73z"/>
</g>
</svg>
